<?xml version="1.0" encoding="UTF-8"?>
<svg width="477.35231554508204" height="112.08628147840498" xmlns="http://www.w3.org/2000/svg" xmlns:svg="http://www.w3.org/2000/svg">
 <g>
  <title>Layer 1</title>
  <g id="XMLID_1_" stroke="null">
   <path id="XMLID_2_" fill="#FFFFFF" d="m96.05234,110.18628l0,-64.8l-24.1,64.8l-14.5,0l-24.1,-64.8l0,64.8l-32.6,0l0,-107.8l45.1,0l18.9,51.7l18.9,-51.7l45.1,0l0,107.8l-32.7,0z" stroke="null"/>
   <path id="XMLID_4_" fill="#FFFFFF" d="m196.45234,112.08628c-8.4,0 -16.2,-1.3 -23.5,-4c-7.3,-2.7 -13.5,-6.5 -18.8,-11.4c-5.3,-4.9 -9.4,-10.8 -12.4,-17.6c-3,-6.8 -4.5,-14.4 -4.5,-22.7c0,-8.3 1.5,-15.9 4.5,-22.7c3,-6.8 7.2,-12.7 12.4,-17.6c5.3,-4.9 11.6,-8.7 18.8,-11.4c7.3,-2.7 15.1,-4 23.5,-4c7.1,0 13.3,0.9 18.7,2.8c5.3,1.9 10,4.3 14,7.3c4,3 7.3,6.3 9.9,10.1c2.6,3.8 4.8,7.5 6.4,11.1l-28.1,13.1c-0.6,-2 -1.6,-4 -3,-6c-1.3,-1.9 -2.9,-3.6 -4.8,-5c-1.8,-1.4 -3.9,-2.5 -6.1,-3.4c-2.3,-0.9 -4.6,-1.3 -6.9,-1.3c-3.9,0 -7.4,0.7 -10.7,2.1c-3.2,1.4 -6,3.3 -8.3,5.7c-2.3,2.4 -4.1,5.3 -5.3,8.6c-1.2,3.3 -1.9,6.8 -1.9,10.6c0,3.8 0.6,7.3 1.9,10.6c1.2,3.3 3,6.1 5.3,8.6c2.3,2.4 5.1,4.3 8.3,5.7c3.2,1.4 6.8,2.1 10.7,2.1c2.4,0 4.7,-0.4 6.9,-1.3c2.3,-0.9 4.3,-2 6.1,-3.4c1.8,-1.4 3.4,-3 4.8,-4.9c1.3,-1.9 2.3,-3.9 3,-6.1l28.1,12.9c-1.6,3.6 -3.7,7.2 -6.4,11c-2.6,3.8 -5.9,7.2 -9.9,10.2c-3.9,3 -8.6,5.5 -14,7.4c-5.4,2 -11.6,2.9 -18.7,2.9z" stroke="null"/>
   <path id="XMLID_6_" fill="#FFFFFF" d="m325.85234,110.18628l-3.9,-12.6l-38.8,0l-3.9,12.6l-37,0l39.7,-107.8l41,0l39.7,107.8l-36.8,0zm-23.3,-75.8l-10.7,34.7l21.3,0l-10.6,-34.7z" stroke="null"/>
   <path id="XMLID_9_" fill="#FFFFFF" d="m440.55234,110.18628l-3.9,-12.6l-38.8,0l-3.9,12.6l-37,0l39.7,-107.8l41,0l39.7,107.8l-36.8,0zm-23.3,-75.8l-10.7,34.7l21.3,0l-10.6,-34.7z" stroke="null"/>
  </g>
 </g>
</svg>